<?xml version="1.0" standalone="no"?>
<!DOCTYPE svg PUBLIC "-//W3C//DTD SVG 20010904//EN"
 "http://www.w3.org/TR/2001/REC-SVG-20010904/DTD/svg10.dtd">
<svg version="1.0" xmlns="http://www.w3.org/2000/svg"
 width="544.000000pt" height="544.000000pt" viewBox="0 0 544.000000 544.000000"
 preserveAspectRatio="xMidYMid meet">
<metadata>
Created by potrace 1.14, written by Peter Selinger 2001-2017
</metadata>
<g transform="translate(0.000000,544.000000) scale(0.100000,-0.100000)"
fill="#000000" stroke="none">
<path d="M2365 5433 c-265 -17 -609 -68 -835 -123 -907 -223 -1418 -695 -1457
-1342 l-6 -108 2646 0 2647 0 0 41 c0 72 -30 249 -57 333 -87 278 -267 505
-556 704 -105 72 -366 204 -509 256 -323 119 -739 203 -1157 236 -122 9 -590
11 -716 3z"/>
<path d="M450 3719 c-70 -14 -146 -56 -191 -107 -87 -99 -121 -210 -121 -392
0 -233 69 -392 203 -465 98 -53 266 -46 391 16 75 36 128 77 128 98 0 19 -56
91 -71 91 -5 0 -33 -16 -63 -36 -141 -93 -288 -84 -356 23 -48 75 -63 142 -64
273 0 187 39 299 121 347 38 22 53 25 113 21 60 -3 73 -7 101 -33 41 -40 57
-73 67 -137 l7 -53 57 -3 c50 -3 58 0 77 24 41 53 21 150 -47 226 -53 58 -115
92 -197 107 -67 12 -91 12 -155 0z"/>
<path d="M2160 3715 c-182 -51 -274 -226 -199 -376 35 -70 95 -109 284 -188
111 -46 134 -62 164 -112 26 -42 26 -75 1 -116 -53 -88 -220 -92 -376 -9 l-65
34 -21 -21 c-20 -22 -48 -77 -48 -96 0 -16 158 -88 221 -101 91 -20 243 -9
309 21 94 44 142 105 161 203 19 102 -26 204 -117 266 -24 17 -106 58 -182 90
-152 66 -192 98 -192 153 0 45 31 90 75 112 49 23 156 17 240 -14 100 -37 98
-37 123 7 12 22 22 51 22 65 0 21 -8 28 -57 45 -134 49 -254 61 -343 37z"/>
<path d="M3641 3719 c-191 -37 -310 -226 -311 -492 0 -179 50 -327 140 -411
81 -76 124 -91 260 -91 137 0 182 16 259 93 86 86 127 196 137 364 14 227 -74
431 -216 503 -78 39 -178 52 -269 34z m137 -129 c63 -15 99 -46 132 -115 77
-159 58 -461 -36 -565 -43 -48 -88 -64 -164 -58 -150 11 -219 148 -207 412 10
225 73 321 222 335 6 0 29 -4 53 -9z"/>
<path d="M1030 3370 c0 -212 4 -359 11 -392 23 -107 74 -174 167 -220 64 -32
71 -33 187 -33 111 0 124 2 177 28 65 32 121 89 152 156 20 44 21 62 24 424
l3 378 -78 -3 -78 -3 -5 -365 c-5 -389 -6 -396 -57 -442 -57 -52 -171 -63
-244 -25 -32 17 -50 37 -69 72 l-25 49 -3 321 c-1 176 -4 330 -7 342 -9 40
-33 53 -96 53 l-59 0 0 -340z"/>
<path d="M2626 3675 c-4 -19 -4 -51 0 -70 l6 -35 124 0 124 0 2 -417 3 -418
75 0 75 0 3 418 2 417 106 0 c98 0 107 2 129 25 27 26 29 35 19 84 l-6 31
-328 0 -328 0 -6 -35z"/>
<path d="M4369 3708 c-8 -24 -75 -965 -70 -971 4 -4 39 -7 77 -5 l69 3 17 285
c35 559 29 501 44 455 7 -22 50 -165 95 -318 l82 -278 80 3 80 3 91 307 c50
168 94 304 98 302 4 -3 8 -44 8 -92 0 -48 9 -217 20 -377 11 -159 20 -291 20
-292 0 -2 32 -3 70 -3 52 0 72 4 76 14 6 16 -64 944 -72 958 -3 4 -49 8 -103
8 l-98 0 -68 -222 c-38 -123 -80 -270 -95 -328 l-27 -105 -12 45 c-28 105 -74
266 -124 430 l-54 175 -101 3 c-56 1 -102 1 -103 0z"/>
<path d="M330 2580 c-101 -17 -181 -75 -228 -164 l-27 -51 0 -505 0 -505 27
-51 c35 -66 105 -128 171 -151 50 -17 165 -18 2447 -18 l2395 0 55 26 c77 36
124 80 157 147 l28 57 0 495 0 495 -28 57 c-33 67 -80 111 -157 147 l-55 26
-2370 1 c-1304 1 -2390 -2 -2415 -6z m729 -247 c68 -23 119 -62 149 -112 24
-42 27 -55 27 -146 0 -92 -3 -106 -32 -168 l-32 -68 51 -74 c61 -87 71 -145
44 -239 -40 -135 -170 -181 -459 -161 l-107 7 0 478 0 479 53 10 c117 23 227
21 306 -6z m1463 -6 c74 -33 122 -78 155 -144 52 -108 28 -250 -57 -327 -43
-38 -106 -56 -200 -56 -33 0 -60 -3 -60 -6 0 -4 46 -59 103 -123 128 -144 247
-286 247 -295 0 -3 -31 -6 -69 -6 l-70 0 -107 133 c-109 133 -190 219 -224
237 -16 8 -19 5 -25 -22 -4 -17 -4 -102 0 -189 l7 -156 -47 -7 c-25 -4 -59 -4
-75 -1 l-30 7 0 416 c0 229 -3 447 -6 483 l-7 66 89 11 c49 6 142 9 206 7 99
-3 125 -7 170 -28z m1992 23 c106 -17 186 -73 234 -165 22 -41 27 -64 27 -125
0 -67 -4 -82 -35 -140 -47 -85 -95 -112 -217 -118 -46 -3 -83 -9 -83 -14 0 -6
49 -65 108 -131 60 -67 139 -159 176 -204 l68 -83 -75 0 -74 0 -93 118 c-92
115 -232 262 -251 262 -5 0 -9 -78 -9 -189 l0 -189 -45 -7 c-26 -3 -58 -4 -73
0 l-27 5 0 258 c0 141 -2 358 -4 482 l-4 225 84 11 c109 15 219 16 293 4z
m-1307 -40 c99 -43 153 -128 153 -237 l0 -43 -66 0 -67 0 7 38 c13 86 -70 157
-175 150 -31 -2 -69 -12 -84 -22 -63 -41 -91 -185 -82 -416 7 -173 23 -235 71
-278 80 -70 235 -45 272 43 14 35 19 141 8 183 -6 20 -12 22 -84 22 l-77 0 -6
43 c-3 23 -1 47 4 52 11 11 267 10 278 -1 12 -12 6 -308 -8 -349 -21 -61 -66
-103 -136 -124 -196 -60 -340 -19 -392 109 -32 82 -46 232 -41 462 3 185 6
208 26 253 28 61 46 82 95 107 84 43 218 46 304 8z m839 -37 c-4 -31 -9 -59
-11 -62 -3 -2 -101 -7 -219 -9 l-213 -5 -7 -127 c-4 -70 -4 -134 0 -143 5 -14
21 -17 84 -17 42 0 98 -3 124 -6 l46 -7 0 -53 c0 -30 -3 -55 -7 -55 -5 -1 -60
-4 -123 -8 l-115 -6 -3 -141 -3 -141 77 -7 c42 -3 141 -6 220 -6 85 0 145 -4
149 -10 3 -6 3 -30 -1 -55 l-6 -45 -284 0 -284 0 0 475 0 474 63 4 c34 2 165
4 291 5 l229 2 -7 -57z m-2560 -268 c1 -305 9 -386 46 -462 42 -85 179 -91
232 -10 40 60 49 134 55 452 l6 310 62 3 61 3 8 -88 c8 -103 -1 -470 -16 -594
-12 -103 -28 -146 -76 -199 -47 -51 -110 -75 -199 -74 -93 0 -175 27 -230 76
-73 64 -75 80 -75 515 l0 374 63 -3 62 -3 1 -300z"/>
<path d="M823 2213 c-16 -6 -18 -275 -3 -304 10 -17 22 -19 111 -19 68 0 109
5 128 15 39 20 71 89 71 151 0 114 -65 165 -210 163 -47 0 -91 -3 -97 -6z"/>
<path d="M813 1754 c-9 -24 3 -254 14 -265 5 -5 52 -10 104 -11 109 -2 150 12
187 65 27 41 28 97 3 153 -26 57 -71 74 -202 74 -81 0 -101 -3 -106 -16z"/>
<path d="M2226 2232 l-39 -7 2 -150 c1 -82 5 -152 8 -155 2 -3 69 -5 149 -5
l144 0 31 32 c35 35 49 91 39 155 -15 89 -80 130 -210 134 -47 1 -103 -1 -124
-4z"/>
<path d="M4300 2232 l-35 -7 -2 -140 c-1 -77 2 -147 7 -155 13 -21 228 -27
284 -8 55 18 81 64 81 144 0 50 -4 66 -27 96 -41 53 -88 72 -188 74 -47 1
-101 -1 -120 -4z"/>
<path d="M70 932 c0 -27 9 -83 20 -126 104 -408 561 -655 1400 -755 339 -41
469 -46 1225 -46 848 0 1063 12 1470 81 737 126 1130 401 1171 822 l7 72
-2647 0 -2646 0 0 -48z"/>
</g>
</svg>
